<svg width="38" height="38" viewBox="0 0 38 38" fill="none" xmlns="http://www.w3.org/2000/svg">
<path fill-rule="evenodd" clip-rule="evenodd" d="M38 19.177C37.9622 23.2346 36.6262 27.1735 34.1879 30.4169C31.7496 33.6604 28.3371 36.0381 24.4498 37.2018C20.5624 38.3656 16.4046 38.2543 12.5851 36.8842C8.7656 35.5142 5.48496 32.9573 3.2237 29.588C0.962435 26.2188 -0.160756 22.2141 0.0185709 18.1604C0.197898 14.1066 1.67051 10.2167 4.22046 7.06027C6.7704 3.90384 10.2638 1.64664 14.1893 0.619189C18.1149 -0.408263 22.2662 -0.152009 26.0356 1.35044L23.0604 4.41164C21.6884 3.99373 20.262 3.78192 18.8278 3.78308C15.7805 3.78225 12.8013 4.68522 10.2673 6.37775C7.73322 8.07028 5.75819 10.4763 4.59184 13.2916C3.4255 16.1068 3.12018 19.2047 3.71479 22.1934C4.30939 25.182 5.77721 27.9272 7.93227 30.0817C10.0873 32.2361 12.833 33.703 15.8219 34.2968C18.8108 34.8905 21.9085 34.5845 24.7234 33.4174C27.5384 32.2503 29.9442 30.2746 31.636 27.7401C33.3279 25.2057 34.23 22.2264 34.2283 19.1792H38V19.177ZM16.942 21.4274L33.4111 4.95227L36.1142 7.65302L16.942 26.829L8.28831 18.186L10.9914 15.4852L16.942 21.4274Z" fill="#EF583A"/>
</svg>
