<svg width="142" height="98" viewBox="0 0 142 98" fill="none" xmlns="http://www.w3.org/2000/svg">
<path d="M19.8806 70.6721L13.2897 92.3104L6.56385 70.6721H2.78223L11.1558 96.0597L15.1535 95.9258L23.3381 70.6721H19.8806Z" fill="black"/>
<path d="M44.5423 96.0069H27.2819V93.436H34.548V80.8761H28.2003V78.3052H34.548L37.7624 78.0642V93.436H44.5423V96.0069Z" fill="black"/>
<path d="M36.1417 74.1807C34.8992 74.1807 34.0078 73.2166 34.0078 71.9311C34.0078 70.6725 34.9262 69.762 36.2498 69.762C37.4923 69.762 38.3567 70.726 38.3567 72.0383C38.3297 73.2701 37.4383 74.1807 36.1417 74.1807Z" fill="black"/>
<path d="M64.7738 94.6402C63.4232 95.7382 61.2623 96.3274 58.345 96.3274C56.0761 96.3274 53.8881 95.8721 51.7272 94.9616L51.6191 92.2836C53.9962 93.2477 56.2381 93.7029 58.318 93.7029C61.6945 93.7029 63.3962 92.4175 63.3962 90.8374C63.3962 89.6859 62.5589 88.8022 59.2904 88.1862L56.9945 87.731C53.2939 87.0079 51.7272 85.2136 51.7272 82.9641C51.7272 81.5715 52.3755 80.3129 53.7531 79.2684C55.1036 78.1972 57.1565 77.6616 59.9117 77.6616C62.2077 77.6616 64.2066 78.0098 65.9083 78.706L65.6922 81.2234C63.7203 80.5807 61.7755 80.2593 59.9117 80.2593C56.6973 80.2593 55.0766 81.3305 55.0766 82.7766C55.0766 83.8746 56.022 84.7048 58.9933 85.3207L61.3703 85.7492C65.0709 86.4723 66.9077 88.1059 66.9077 90.6768C66.8537 92.2032 66.1514 93.5422 64.7738 94.6402Z" fill="black"/>
<path d="M91.1641 96.0069H73.7146V93.436H81.0618V80.8761H74.66V78.3052H81.0618L84.3302 78.0642V93.436H91.1641V96.0069Z" fill="black"/>
<path d="M82.6558 74.1807C81.3863 74.1807 80.4949 73.2166 80.4949 71.9311C80.4949 70.6725 81.4403 69.762 82.7638 69.762C84.0334 69.762 84.8978 70.726 84.8978 72.0383C84.8978 73.2701 84.0064 74.1807 82.6558 74.1807Z" fill="black"/>
<path d="M112.071 93.7835C110.369 95.4974 108.181 96.3544 105.561 96.3544C102.968 96.3544 100.861 95.4974 99.1596 93.837C97.4578 92.1231 96.6205 89.8468 96.6205 86.9545C96.6205 84.1159 97.4849 81.8663 99.2136 80.2327C100.969 78.5456 103.211 77.7422 105.994 77.7422C108.614 77.7422 110.721 78.5188 112.341 80.1256C113.935 81.7324 114.745 83.9016 114.745 86.6332C114.691 89.6593 113.8 92.0428 112.071 93.7835ZM105.615 80.3666C102.239 80.3666 99.9969 82.6697 99.9969 86.7671C99.9969 88.7488 100.51 90.436 101.537 91.7482C102.563 93.0604 103.914 93.7031 105.588 93.7031H105.831C107.479 93.7031 108.776 93.0872 109.775 91.8553C110.802 90.5967 111.315 88.9363 111.315 86.901C111.288 83.0447 109.154 80.3666 105.615 80.3666Z" fill="black"/>
<path d="M136.625 96.0062H133.329V85.9101C133.329 82.4019 132.006 80.688 129.278 80.688C127.495 80.688 125.928 81.3575 124.551 82.6965V96.0062H121.255V78.3849L124.253 78.0903L124.334 80.3398C125.901 78.7062 127.792 77.9028 130.142 77.9028C134.383 77.9028 136.598 80.5808 136.598 85.2941V96.0062H136.625Z" fill="black"/>
<path d="M43.6241 60.3894L40.6529 60.684L40.5718 58.4077C39.0321 60.0413 37.1413 60.8715 34.8454 60.8715C30.5775 60.8715 28.4436 58.247 28.4436 53.4266V42.7414L31.658 42.4468V52.8107C31.658 56.3456 33.0086 58.0863 35.7097 58.0863C37.4655 58.0863 39.0051 57.4168 40.3557 56.0511V42.7414L43.5971 42.4468V60.3894H43.6241Z" fill="black"/>
<path d="M66.9353 59.6665C65.1525 60.4431 63.2617 60.8448 61.2358 60.8448C57.9944 60.8448 55.5364 60.0146 53.7536 58.3811C51.9708 56.7207 51.1064 54.4979 51.1064 51.7664C51.1064 45.6069 54.9961 42.313 61.2088 42.313C63.2077 42.313 65.0174 42.6076 66.6381 43.1967L66.395 45.9015C64.7473 45.3391 63.0456 45.0446 61.2628 45.0446C57.157 45.0446 54.5369 47.0798 54.5369 51.3111C54.5369 55.7298 57.3731 58.1133 61.641 58.1133C63.2887 58.1133 65.0985 57.7651 67.0163 57.0153L66.9353 59.6665Z" fill="black"/>
<path d="M21.3126 41.7235C20.7724 40.4916 20.016 39.3936 19.0976 38.5099C16.9367 36.4211 14.0195 35.3499 10.3729 35.3499C7.75276 35.3499 5.7539 35.3499 4.40332 35.3766V60.4964C6.2131 60.5232 8.56311 60.5767 11.5074 60.5767C14.8028 60.5767 17.4229 59.2913 19.4488 56.7204C21.4747 54.1495 22.5011 51.0966 22.5011 47.508C22.4201 45.2853 22.0419 43.3571 21.3126 41.7235ZM16.9097 54.9261C15.5591 56.7739 13.7223 57.6845 11.3993 57.6845C9.94071 57.6845 8.72518 57.6577 7.77977 57.6041V38.2957C8.26598 38.2689 9.15737 38.2689 10.4539 38.2689C13.5062 38.2689 15.8833 39.5275 17.3419 41.7503C18.3683 43.3303 18.9356 45.4192 18.9356 47.9097C18.9356 50.7216 18.2603 53.0515 16.9097 54.9261Z" fill="black"/>
<path d="M78.55 32.9934V60.5233H75.2816V33.3148L78.55 32.9934Z" fill="black"/>
<path d="M91.3267 42.6345H87.383L79.2255 51.1238L87.6261 60.5236H91.7588L83.0611 50.9364L91.3267 42.6345Z" fill="black"/>
<path d="M107.372 35.1624L107.291 38.3492L107.021 43.6784H104.779C104.644 42.0181 104.536 40.2238 104.509 38.3492L104.427 35.1624H107.372Z" fill="black"/>
<path d="M133.978 59.1311C132.601 60.2559 130.413 60.8451 127.441 60.8451C125.145 60.8451 122.903 60.363 120.715 59.4525L120.607 56.7209C123.011 57.7118 125.28 58.1671 127.414 58.1671C130.845 58.1671 132.574 56.8548 132.574 55.248C132.574 54.0965 131.709 53.186 128.414 52.57L126.064 52.088C122.309 51.3649 120.715 49.5439 120.715 47.2676C120.715 45.8482 121.391 44.5896 122.768 43.5184C124.146 42.4204 126.226 41.8848 129.008 41.8848C131.358 41.8848 133.357 42.2597 135.113 42.9292L134.897 45.4733C132.898 44.8306 130.926 44.4824 129.035 44.4824C125.767 44.4824 124.119 45.5804 124.119 47.0265C124.119 48.1513 125.091 48.9815 128.09 49.5974L130.494 50.0259C134.248 50.749 136.112 52.4361 136.112 55.0338C136.085 56.6674 135.383 58.0064 133.978 59.1311Z" fill="black"/>
<path d="M21.8524 0H17.3955L15.3697 6.26655L12.8306 14.0596L10.3725 6.26655L8.40066 0H3.94374L3.34949 25.0394H6.42881C6.42881 25.0394 6.83398 4.4455 6.83398 4.12414C6.94203 4.65974 7.13111 5.3828 7.40123 6.26655C7.5633 6.82893 7.75238 7.47165 7.99548 8.16794L11.3179 17.9695H14.2892L17.6116 8.24827C17.8277 7.52521 18.0168 6.85571 18.2059 6.26655C18.449 5.40958 18.611 4.68652 18.7191 4.09736C18.7191 4.65974 19.2593 25.0394 19.2593 25.0394H22.5547L21.8524 0Z" fill="black"/>
<path d="M45.2985 7.23071C44.7312 11.1674 43.7588 14.9969 42.4082 18.7729C41.3818 21.6384 40.1123 24.129 38.5996 26.2714C38.1404 26.9409 37.6542 27.5568 37.141 28.146C34.953 30.7169 31.8197 32.7254 27.768 34.1447L26.5794 31.4667C30.28 30.1009 32.9272 28.4406 34.4938 26.5927C34.4398 26.4856 34.3858 26.3785 34.3318 26.2714C33.1433 23.7808 31.9007 21.0225 30.6042 17.9695C29.2266 14.7291 28.1731 12.1315 27.4168 10.1765L26.3093 7.25749H30.0099C32.3059 13.7651 34.4938 19.255 36.6278 23.7808C39.1939 19.6835 40.9766 14.1935 42.0571 7.25749H45.2985V7.23071Z" fill="black"/>
<path d="M141.973 77.2339H0V97.2386H141.973V77.2339Z" fill="black"/>
<path d="M142 41.7236H115.772V61.7284H142V41.7236Z" fill="black"/>
<path d="M95.9993 41.7236H0V61.7284H95.9993V41.7236Z" fill="black"/>
<path d="M49.4042 6.26685H0V26.2716H49.4042V6.26685Z" fill="black"/>
</svg>
