<svg width="56" height="38" viewBox="0 0 56 38" fill="none" xmlns="http://www.w3.org/2000/svg">
<path d="M7.76918 27.6183L5.19354 36.0744L2.56511 27.6183H1.08728L4.35962 37.5396L5.9219 37.4873L9.12034 27.6183H7.76918Z" fill="black"/>
<path d="M17.4067 37.5187H10.6615V36.514H13.501V31.6057H11.0204V30.601H13.501L14.7572 30.5068V36.514H17.4067V37.5187Z" fill="black"/>
<path d="M14.1238 28.9893C13.6383 28.9893 13.2899 28.6126 13.2899 28.1102C13.2899 27.6183 13.6488 27.2625 14.1661 27.2625C14.6516 27.2625 14.9894 27.6393 14.9894 28.1521C14.9789 28.6335 14.6305 28.9893 14.1238 28.9893Z" fill="black"/>
<path d="M25.3131 36.9849C24.7853 37.4139 23.9408 37.6442 22.8008 37.6442C21.9141 37.6442 21.0591 37.4663 20.2146 37.1104L20.1724 36.0639C21.1013 36.4407 21.9774 36.6186 22.7902 36.6186C24.1097 36.6186 24.7747 36.1162 24.7747 35.4988C24.7747 35.0487 24.4475 34.7034 23.1702 34.4627L22.273 34.2848C20.8268 34.0022 20.2146 33.301 20.2146 32.4219C20.2146 31.8777 20.4679 31.3858 21.0063 30.9777C21.5341 30.5591 22.3363 30.3497 23.413 30.3497C24.3103 30.3497 25.0914 30.4858 25.7565 30.7579L25.672 31.7417C24.9014 31.4905 24.1414 31.3649 23.413 31.3649C22.1569 31.3649 21.5235 31.7835 21.5235 32.3487C21.5235 32.7777 21.893 33.1022 23.0541 33.3429L23.9831 33.5103C25.4292 33.7929 26.147 34.4313 26.147 35.436C26.1259 36.0325 25.8515 36.5558 25.3131 36.9849Z" fill="black"/>
<path d="M35.6263 37.5187H28.8071V36.514H31.6783V31.6057H29.1766V30.601H31.6783L32.9556 30.5068V36.514H35.6263V37.5187Z" fill="black"/>
<path d="M32.3013 28.9893C31.8051 28.9893 31.4568 28.6126 31.4568 28.1102C31.4568 27.6183 31.8262 27.2625 32.3435 27.2625C32.8396 27.2625 33.1774 27.6393 33.1774 28.1521C33.1774 28.6335 32.8291 28.9893 32.3013 28.9893Z" fill="black"/>
<path d="M43.7965 36.65C43.1315 37.3198 42.2765 37.6547 41.2526 37.6547C40.2392 37.6547 39.4158 37.3198 38.7508 36.671C38.0858 36.0012 37.7585 35.1116 37.7585 33.9813C37.7585 32.872 38.0963 31.9929 38.7719 31.3545C39.4581 30.6952 40.3342 30.3812 41.4215 30.3812C42.4454 30.3812 43.2687 30.6847 43.9021 31.3127C44.5249 31.9406 44.8416 32.7883 44.8416 33.8558C44.8205 35.0384 44.4721 35.9698 43.7965 36.65ZM41.2737 31.4068C39.9542 31.4068 39.078 32.3069 39.078 33.9081C39.078 34.6825 39.2786 35.3419 39.6797 35.8547C40.0808 36.3675 40.6086 36.6186 41.2631 36.6186H41.3581C42.002 36.6186 42.5087 36.3779 42.8993 35.8965C43.3004 35.4047 43.501 34.7558 43.501 33.9604C43.4904 32.4534 42.6565 31.4068 41.2737 31.4068Z" fill="black"/>
<path d="M53.3918 37.5187H52.104V33.5732C52.104 32.2022 51.5868 31.5324 50.5206 31.5324C49.8239 31.5324 49.2117 31.794 48.6733 32.3173V37.5187H47.3855V30.6324L48.5572 30.5173L48.5889 31.3964C49.2011 30.758 49.94 30.444 50.8584 30.444C52.5157 30.444 53.3813 31.4905 53.3813 33.3325V37.5187H53.3918Z" fill="black"/>
<path d="M17.048 23.5997L15.8869 23.7148L15.8552 22.8252C15.2535 23.4636 14.5146 23.7881 13.6174 23.7881C11.9495 23.7881 11.1156 22.7624 11.1156 20.8787V16.703L12.3718 16.5878V20.638C12.3718 22.0194 12.8996 22.6997 13.9551 22.6997C14.6413 22.6997 15.243 22.438 15.7708 21.9043V16.703L17.0375 16.5878V23.5997H17.048Z" fill="black"/>
<path d="M26.1578 23.3171C25.4611 23.6206 24.7222 23.7776 23.9305 23.7776C22.6638 23.7776 21.7032 23.4531 21.0065 22.8148C20.3098 22.1659 19.972 21.2973 19.972 20.2298C19.972 17.8227 21.4921 16.5355 23.92 16.5355C24.7011 16.5355 25.4084 16.6506 26.0417 16.8808L25.9467 17.9378C25.3028 17.7181 24.6378 17.603 23.9411 17.603C22.3366 17.603 21.3127 18.3983 21.3127 20.0519C21.3127 21.7787 22.421 22.7101 24.0889 22.7101C24.7328 22.7101 25.44 22.574 26.1895 22.281L26.1578 23.3171Z" fill="black"/>
<path d="M8.32884 16.3052C8.11772 15.8238 7.82215 15.3947 7.46325 15.0493C6.61878 14.233 5.47874 13.8144 4.05369 13.8144C3.02976 13.8144 2.24862 13.8144 1.72083 13.8249V23.6415C2.42807 23.652 3.34644 23.6729 4.49704 23.6729C5.78486 23.6729 6.80879 23.1705 7.60048 22.1659C8.39218 21.1612 8.7933 19.9681 8.7933 18.5657C8.76163 17.6971 8.61385 16.9436 8.32884 16.3052ZM6.60822 21.4647C6.08043 22.1868 5.36262 22.5426 4.45481 22.5426C3.88479 22.5426 3.40977 22.5321 3.04032 22.5112V14.9656C3.23032 14.9552 3.57867 14.9552 4.08535 14.9552C5.27818 14.9552 6.2071 15.447 6.77712 16.3157C7.17824 16.9331 7.39992 17.7494 7.39992 18.7227C7.39992 19.8216 7.13602 20.7321 6.60822 21.4647Z" fill="black"/>
<path d="M30.6968 12.8935V23.652H29.4196V13.0191L30.6968 12.8935Z" fill="black"/>
<path d="M35.6898 16.6611H34.1486L30.9607 19.9786L34.2436 23.652H35.8586L32.4596 19.9053L35.6898 16.6611Z" fill="black"/>
<path d="M41.96 13.7411L41.9284 14.9865L41.8228 17.0692H40.9467C40.8939 16.4203 40.8517 15.7191 40.8411 14.9865L40.8094 13.7411H41.96Z" fill="black"/>
<path d="M52.3576 23.1078C51.8193 23.5473 50.9643 23.7776 49.8031 23.7776C48.9059 23.7776 48.0297 23.5892 47.1747 23.2334L47.1324 22.1659C48.0719 22.5531 48.9586 22.731 49.7925 22.731C51.1332 22.731 51.8087 22.2182 51.8087 21.5903C51.8087 21.1403 51.4709 20.7844 50.1831 20.5437L49.2648 20.3554C47.7975 20.0728 47.1747 19.3611 47.1747 18.4716C47.1747 17.9169 47.4386 17.425 47.9769 17.0064C48.5153 16.5773 49.3281 16.368 50.4154 16.368C51.3337 16.368 52.1149 16.5145 52.801 16.7762L52.7166 17.7704C51.9354 17.5192 51.1648 17.3832 50.4259 17.3832C49.1486 17.3832 48.5047 17.8122 48.5047 18.3774C48.5047 18.8169 48.8847 19.1414 50.0564 19.3821L50.9959 19.5495C52.4632 19.8321 53.1916 20.4914 53.1916 21.5066C53.181 22.1449 52.9066 22.6682 52.3576 23.1078Z" fill="black"/>
<path d="M8.53977 0H6.79804L6.00635 2.44892L5.01409 5.49437L4.0535 2.44892L3.28292 0H1.54119L1.30896 9.78521H2.51234C2.51234 9.78521 2.67067 1.73727 2.67067 1.61168C2.7129 1.82099 2.78679 2.10356 2.89235 2.44892C2.95569 2.66869 3.02958 2.91986 3.12458 3.19197L4.42296 7.02232H5.58411L6.88249 3.22336C6.96694 2.94079 7.04083 2.67916 7.11472 2.44892C7.20972 2.11402 7.27306 1.83146 7.31528 1.60121C7.31528 1.82099 7.5264 9.78521 7.5264 9.78521H8.81423L8.53977 0Z" fill="black"/>
<path d="M17.7023 2.82568C17.4806 4.36411 17.1006 5.86067 16.5728 7.3363C16.1717 8.4561 15.6756 9.42939 15.0844 10.2666C14.905 10.5283 14.715 10.769 14.5144 10.9992C13.6594 12.0039 12.4349 12.7888 10.8515 13.3435L10.3871 12.2969C11.8332 11.7632 12.8677 11.1143 13.4799 10.3922C13.4588 10.3503 13.4377 10.3085 13.4166 10.2666C12.9521 9.29334 12.4666 8.21539 11.9599 7.02233C11.4215 5.75601 11.0099 4.74086 10.7143 3.97688L10.2815 2.83615H11.7277C12.6249 5.37925 13.4799 7.52467 14.3139 9.29334C15.3167 7.69212 16.0134 5.5467 16.4356 2.83615H17.7023V2.82568Z" fill="black"/>
<path d="M55.482 30.1823H0V38H55.482V30.1823Z" fill="black"/>
<path d="M55.4925 16.3051H45.2427V24.1227H55.4925V16.3051Z" fill="black"/>
<path d="M37.5158 16.3051H0V24.1227H37.5158V16.3051Z" fill="black"/>
<path d="M19.3068 2.44885H0V10.2666H19.3068V2.44885Z" fill="black"/>
</svg>
